#!OML:ASF X:\für Bonn\!DataBase\2005_08_11_Bastian_Final\c3d\Bastian.ASF
:FULLY-SPECIFIED
:DEGREES
31
root -3.50855 16.7691 6.38544 172.007 10.6878 -172.217
lowerback 11.6924 -5.23837 3.19855
upperback 6.5667 -5.60751 4.57224
thorax 0.497162 -2.38107 3.59378
lowerneck -9.10074 -1.53385 0.908824
upperneck -10.6264 -1.1543 1.88259
head -1.8017 -0.27397 0.413202
rclavicle -2.74323e-014 1.27222e-014
rhumerus -49.0199 0.231045 -79.7899
rradius 77.4183
rwrist -256.582
rhand -3.71579 -24.163
rfingers 7.12502
rthumb 22.0269 -412.929
lclavicle -2.74323e-014 1.27222e-014
lhumerus 337.655 -20.8288 -269.253
lradius 80.5489
lwrist -144.228
lhand -28.421 12.2267
lfingers 7.12502
lthumb -1.79248 42.1989
rfemur -23.5465 -19.5137 35.0952
rtibia 53.7199
rfoot -11.681 -10.725
rtoes 16.8023
lfemur 18.2888 5.06205 -14.6345
ltibia 24.4686
lfoot -28.2736 0.78925
ltoes -6.04289
32
root -3.51608 16.7721 6.45741 171.682 10.7495 -172.342
lowerback 12.1344 -5.10125 3.05394
upperback 6.75072 -5.38519 4.51364
thorax 0.45169 -2.25787 3.61656
lowerneck -9.0911 -1.77055 0.659044
upperneck -10.7958 -1.41555 2.13844
head -1.85322 -0.392023 0.532591
rclavicle 7.15625e-015 -6.04305e-014
rhumerus -48.6914 0.638133 -80.1159
rradius 78.6784
rwrist -255.177
rhand -3.88962 -24.5182
rfingers 7.12502
rthumb 21.86 -413.303
lclavicle 7.15625e-015 -6.04305e-014
lhumerus 338.452 -20.8237 -269.763
lradius 81.2422
lwrist -144.12
lhand -28.2895 12.0756
lfingers 7.12502
lthumb -1.6655 42.0488
rfemur -23.8427 -19.0883 34.9182
rtibia 54.2029
rfoot -10.8092 -11.01
rtoes 16.5261
lfemur 18.2585 5.08318 -14.71
ltibia 24.6936
lfoot -28.1634 0.469776
ltoes -4.65134
33
root -3.52043 16.7772 6.52431 171.339 10.7168 -172.407
lowerback 12.5417 -4.99051 2.93705
upperback 6.93564 -5.19299 4.48887
thorax 0.428148 -2.14738 3.65851
lowerneck -9.0257 -2.01665 0.350717
upperneck -10.9798 -1.68264 2.44015
head -1.91672 -0.512401 0.677414
rclavicle -5.41688e-014 3.65764e-014
rhumerus -48.3447 1.14144 -80.4106
rradius 79.9619
rwrist -253.853
rhand -3.98082 -24.7811
rfingers 7.12502
rthumb 21.7724 -413.576
lclavicle -5.41688e-014 3.65764e-014
lhumerus 339.268 -20.8156 -270.254
lradius 81.961
lwrist -144.05
lhand -28.1481 11.9387
lfingers 7.12502
lthumb -1.52899 41.913
rfemur -24.0939 -18.6891 34.8046
rtibia 54.6668
rfoot -9.92546 -11.411
rtoes 15.9145
lfemur 18.2894 5.05211 -14.6881
ltibia 24.8435
lfoot -27.9613 0.0219917
ltoes -2.97285
34
root -3.52031 16.785 6.58572 170.982 10.5488 -172.518
lowerback 12.8926 -4.89956 2.739
upperback 7.11042 -5.04354 4.45812
thorax 0.433 -2.06216 3.73898
lowerneck -8.908 -2.26138 0.097427
upperneck -11.1653 -1.95701 2.70597
head -1.9889 -0.639588 0.803361
rclavicle 9.40251e-014 -7.4743e-014
rhumerus -47.9533 1.78232 -80.7233
rradius 81.2198
rwrist -252.664
rhand -4.00601 -25.03
rfingers 7.12502
rthumb 21.7482 -413.828
lclavicle 9.40251e-014 -7.4743e-014
lhumerus 340.112 -20.8709 -270.764
lradius 82.6584
lwrist -143.941
lhand -27.886 11.901
lfingers 7.12502
lthumb -1.27578 41.8769
rfemur -24.345 -18.3258 34.6463
rtibia 55.1301
rfoot -9.0731 -11.8937
rtoes 14.7365
lfemur 18.3576 4.97101 -14.6948
ltibia 24.9194
lfoot -27.7335 -0.435307
ltoes -1.54303
35
root -3.5171 16.7935 6.6421 170.636 10.2658 -172.592
lowerback 13.1614 -4.83737 2.55021
upperback 7.29931 -4.93317 4.45676
thorax 0.500492 -1.9951 3.84285
lowerneck -8.81248 -2.51712 -0.134249
upperneck -11.3374 -2.25278 2.9164
head -2.05234 -0.777352 0.908665
rclavicle -1.87852e-014 -1.35174e-014
rhumerus -47.4713 2.4925 -80.9859
rradius 82.4369
rwrist -251.578
rhand -4.04158 -25.2722
rfingers 7.12502
rthumb 21.714 -414.074
lclavicle -1.87852e-014 -1.35174e-014
lhumerus 341.058 -20.9893 -271.315
lradius 83.3397
lwrist -143.698
lhand -27.5379 11.9774
lfingers 7.12502
lthumb -0.939605 41.9551
rfemur -24.5781 -17.9491 34.5162
rtibia 55.5808
rfoot -8.35143 -12.4679
rtoes 13.8695
lfemur 18.4348 4.76871 -14.682
ltibia 24.9646
lfoot -27.5322 -0.883423
ltoes -0.212039
36
root -3.51296 16.8003 6.6957 170.282 9.922 -172.682
lowerback 13.4097 -4.78654 2.33731
upperback 7.46079 -4.84475 4.45992
thorax 0.553585 -1.94171 3.96683
lowerneck -8.6178 -2.77196 -0.359731
upperneck -11.524 -2.55455 3.10418
head -2.13635 -0.921036 1.00815
rclavicle 7.38485e-014 -2.14687e-014
rhumerus -47.0002 3.21569 -81.2173
rradius 83.6735
rwrist -250.527
rhand -4.10234 -25.4508
rfingers 7.12502
rthumb 21.6557 -414.26
lclavicle 7.38485e-014 -2.14687e-014
lhumerus 342.016 -21.1063 -271.869
lradius 84.0493
lwrist -143.439
lhand -27.0886 12.1013
lfingers 7.12502
lthumb -0.505677 42.0805
rfemur -24.7925 -17.4869 34.3577
rtibia 56.019
rfoot -7.77428 -13.1217
rtoes 13.1835
lfemur 18.5193 4.35574 -14.7988
ltibia 24.9978
lfoot -27.3857 -1.12747
ltoes 1.20472
37
root -3.50706 16.8072 6.74553 169.958 9.53181 -172.762
lowerback 13.5466 -4.72726 2.12745
upperback 7.63834 -4.75223 4.47119
thorax 0.683077 -1.88674 4.08863
lowerneck -8.41031 -3.04513 -0.591941
upperneck -11.7097 -2.87908 3.32788
head -2.22038 -1.07653 1.12146
rclavicle 9.14409e-015 1.11319e-014
rhumerus -46.4492 3.83557 -81.3916
rradius 84.8977
rwrist -249.497
rhand -4.24035 -25.6112
rfingers 7.12502
rthumb 21.5231 -414.435
lclavicle 9.14409e-015 1.11319e-014
lhumerus 343.126 -21.2936 -272.453
lradius 84.7169
lwrist -143.153
lhand -26.5466 12.3512
lfingers 7.12502
lthumb 0.0178128 42.3309
rfemur -24.9982 -16.9606 34.198
rtibia 56.4315
rfoot -7.26438 -13.7693
rtoes 12.4855
lfemur 18.5793 3.75395 -15.0057
ltibia 25.0334
lfoot -27.2854 -1.19868
ltoes 2.44193
38
root -3.50111 16.8147 6.79276 169.66 9.0607 -172.801
lowerback 13.6492 -4.69042 1.97746
upperback 7.78981 -4.68603 4.48423
thorax 0.799562 -1.84435 4.18084
lowerneck -8.12893 -3.31656 -0.739566
upperneck -11.9139 -3.21526 3.4836
head -2.32417 -1.24222 1.20154
rclavicle 7.85199e-015 3.65764e-014
rhumerus -45.9156 4.47803 -81.5683
rradius 86.1484
rwrist -248.559
rhand -4.36161 -25.8189
rfingers 7.12502
rthumb 21.4067 -414.656
lclavicle 7.85199e-015 3.65764e-014
lhumerus 344.366 -21.5774 -273.119
lradius 85.3917
lwrist -142.763
lhand -25.9172 12.5764
lfingers 7.12502
lthumb 0.6257 42.5552
rfemur -25.2134 -16.4079 34.0592
rtibia 56.8214
rfoot -6.67393 -14.3581
rtoes 11.473
lfemur 18.6098 3.03422 -15.2189
ltibia 25.0641
lfoot -27.2118 -1.20955
ltoes 3.55643
39
root -3.49374 16.824 6.83635 169.395 8.54003 -172.849
lowerback 13.675 -4.6527 1.79282
upperback 7.92552 -4.62811 4.5326
thorax 0.946872 -1.80957 4.32608
lowerneck -7.75983 -3.59668 -0.942973
upperneck -12.1617 -3.56391 3.61872
head -2.45621 -1.41316 1.28837
rclavicle -9.34288e-015 -3.57812e-014
rhumerus -45.3925 5.1453 -81.6384
rradius 87.4486
rwrist -247.732
rhand -4.59545 -26.0594
rfingers 7.12502
rthumb 21.1821 -414.922
lclavicle -9.34288e-015 -3.57812e-014
lhumerus 345.746 -21.889 -273.78
lradius 86.0787
lwrist -142.369
lhand -25.2289 12.8459
lfingers 7.12502
lthumb 1.29047 42.8217
rfemur -25.4437 -15.813 33.8917
rtibia 57.1722
rfoot -6.01525 -14.8738
rtoes 10.208
lfemur 18.6023 2.30544 -15.4384
ltibia 25.1126
lfoot -27.1227 -1.24616
ltoes 4.71097
40
root -3.48586 16.8347 6.87578 169.159 7.96814 -172.895
lowerback 13.6376 -4.61893 1.63281
upperback 8.04438 -4.58025 4.57055
thorax 1.10725 -1.78125 4.44428
lowerneck -7.37466 -3.8843 -1.1266
upperneck -12.3674 -3.93095 3.76336
head -2.57639 -1.59625 1.37644
rclavicle -3.40916e-014 1.35174e-013
rhumerus -44.8865 5.79054 -81.6872
rradius 88.7995
rwrist -246.946
rhand -4.83403 -26.3504
rfingers 7.12502
rthumb 20.9529 -415.239
lclavicle -3.40916e-014 1.35174e-013
lhumerus 347.28 -22.2096 -274.537
lradius 86.7702
lwrist -141.969
lhand -24.6236 13.062
lfingers 7.12502
lthumb 1.87507 43.0335
rfemur -25.6753 -15.1972 33.6955
rtibia 57.4654
rfoot -5.42074 -15.3074
rtoes 9.03092
lfemur 18.5554 1.70635 -15.5787
ltibia 25.1685
lfoot -26.9947 -1.38403
ltoes 5.49072
41
root -3.47854 16.8436 6.91331 168.911 7.34709 -172.915
lowerback 13.6069 -4.59154 1.5367
upperback 8.15443 -4.53254 4.59557
thorax 1.24789 -1.75031 4.51421
lowerneck -6.96016 -4.18036 -1.25811
upperneck -12.5755 -4.3158 3.89482
head -2.70305 -1.79093 1.45407
rclavicle -9.23355e-014 1.19271e-014
rhumerus -44.3921 6.42363 -81.728
rradius 90.2316
rwrist -246.268
rhand -5.00889 -26.7185
rfingers 7.12502
rthumb 20.7849 -415.625
lclavicle -9.23355e-014 1.19271e-014
lhumerus 348.96 -22.5093 -275.375
lradius 87.4554
lwrist -141.607
lhand -24.1769 13.2417
lfingers 7.12502
lthumb 2.30651 43.209
rfemur -25.8363 -14.4688 33.4793
rtibia 57.6643
rfoot -4.91264 -15.7511
rtoes 8.36195
lfemur 18.5107 1.17017 -15.6511
ltibia 25.2403
lfoot -26.8342 -1.5719
ltoes 6.10005
42
root -3.47108 16.8522 6.94723 168.694 6.70168 -172.942
lowerback 13.5253 -4.54645 1.45005
upperback 8.22867 -4.46742 4.63869
thorax 1.37698 -1.71338 4.59368
lowerneck -6.44748 -4.49945 -1.47026
upperneck -12.7891 -4.73462 4.05307
head -2.84526 -2.00291 1.5591
rclavicle 4.90004e-014 -1.66979e-014
rhumerus -43.9593 7.02439 -81.676
rradius 91.7313
rwrist -245.696
rhand -5.25209 -27.0933
rfingers 7.12502
rthumb 20.5512 -416.026
lclavicle 4.90004e-014 -1.66979e-014
lhumerus 350.71 -22.7504 -276.201
lradius 88.1676
lwrist -141.281
lhand -23.9391 13.3338
lfingers 7.12502
lthumb 2.53615 43.2984
rfemur -25.9535 -13.5349 33.2164
rtibia 57.7547
rfoot -4.53502 -16.2389
rtoes 8.2048
lfemur 18.4207 0.678439 -15.7156
ltibia 25.35
lfoot -26.6849 -1.805
ltoes 6.64504
43
root -3.46391 16.8592 6.97829 168.48 6.0161 -172.959
lowerback 13.426 -4.50155 1.42105
upperback 8.29228 -4.39894 4.66312
thorax 1.4971 -1.67295 4.62013
lowerneck -5.94487 -4.83847 -1.6651
upperneck -12.9589 -5.18702 4.2207
head -2.96946 -2.23378 1.66575
rclavicle 2.46493e-014 -2.54444e-014
rhumerus -43.5553 7.55063 -81.5961
rradius 93.3428
rwrist -245.116
rhand -5.43236 -27.4899
rfingers 7.12502
rthumb 20.378 -416.441
lclavicle 2.46493e-014 -2.54444e-014
lhumerus 352.621 -23.0039 -277.119
lradius 88.8363
lwrist -140.989
lhand -23.8436 13.3693
lfingers 7.12502
lthumb 2.62844 43.3328
rfemur -26.0111 -12.5025 32.9309
rtibia 57.7336
rfoot -4.27263 -16.6938
rtoes 8.27979
lfemur 18.3074 0.141151 -15.7887
ltibia 25.5128
lfoot -26.5695 -2.02908
ltoes 7.10306
